# xmcd
#
# Track frame offsets:
# 150
# 19905
# 47320
# 64510
# 90307
# 112547
# 135035
# 151205
# 169455
# 188440
# 210050
#
# Disc length: 3144 seconds
#
#
# Revision: 0
# Processed by: cddbd v1.4PL0 Copyright (c) Steve Scherf et al.
# Submitted via: FreeRIP 2.52 
#
DISCID=6b0c460b
DTITLE=Uncle Sam - Uncle Sam
DYEAR=1900
DGENRE=
TTITLE0=Can You Feel It
TTITLE1=You Make Me Feel Like
TTITLE2=Throw Your Hands In The Air
TTITLE3=Leave Well Enough Alone
TTITLE4=Without Lovin You
TTITLE5=Someone Like You
TTITLE6=Tender Love
TTITLE7=Think About Me
TTITLE8=Baby You Are
TTITLE9=Stop Fooling Around
TTITLE10=I Don,t Ever Want To See You Again
EXTD=
EXTT0=
EXTT1=
EXTT2=
EXTT3=
EXTT4=
EXTT5=
EXTT6=
EXTT7=
EXTT8=
EXTT9=
EXTT10=
PLAYORDER=
